<?xml version="1.0" encoding="UTF-8" standalone="no"?>
<!DOCTYPE svg PUBLIC "-//W3C//DTD SVG 1.1//EN" "http://www.w3.org/Graphics/SVG/1.1/DTD/svg11.dtd">
<svg width="100%" height="100%" viewBox="0 0 3000 963" version="1.1" xmlns="http://www.w3.org/2000/svg" xmlns:xlink="http://www.w3.org/1999/xlink" xml:space="preserve" xmlns:serif="http://www.serif.com/" style="fill-rule:evenodd;clip-rule:evenodd;stroke-linejoin:round;stroke-miterlimit:2;">
    <g transform="matrix(4.16667,0,0,4.16667,450,-570.422)">
        <path d="M322.954,243.968C323.477,244.838 323.846,245.825 324.237,246.87C325.031,248.993 325.854,251.188 328.055,252.509C331.289,254.449 336.164,253.784 338.921,251.025C340.573,249.373 341.523,246.917 341.461,244.455C341.403,242.138 340.491,240.066 338.894,238.621C332.866,233.167 321.676,233.967 314.206,237.49C310.187,239.386 306.819,241.64 304.198,244.19C302.217,246.119 300.605,248.018 299.343,249.865L299.343,241.44L282.751,245.951L282.948,247.425L283.164,247.425C283.342,247.425 283.756,247.72 283.956,247.862C284.38,248.182 284.821,248.862 285.289,249.932C286.167,252.024 286.596,255.207 286.596,259.653L286.667,308.463C286.667,310.774 286.464,312.644 286.047,314.177C285.624,315.729 285.143,316.949 284.616,317.803C283.93,318.79 283.432,319.369 282.921,319.767C282.437,320.142 281.234,320.772 280.811,320.984L281.146,322.405L304.794,322.405L305.129,320.984C304.706,320.772 303.502,320.142 303.021,319.767C302.477,319.345 301.96,318.722 301.395,317.803C300.817,316.967 300.333,315.791 299.894,314.177C299.475,312.643 299.271,310.773 299.271,308.462L299.343,271.477C299.485,266.369 300.39,261.612 302.108,256.956C303.669,252.543 305.898,248.723 308.737,245.593C311.383,242.744 314.376,241.296 317.626,241.296C320.099,241.296 321.892,242.195 322.954,243.968M342.036,318.201L342.035,318.201C341.443,317.346 340.971,316.193 340.633,314.776C340.215,313.307 340.007,311.436 340.007,309.183L340.007,259.969L339.061,260.227L323.413,264.48C323.413,264.48 323.583,265.754 323.6,265.883C323.593,265.881 323.563,265.874 323.563,265.874C323.563,265.874 323.597,265.886 323.601,265.887C323.602,265.893 323.609,265.954 323.609,265.954L323.796,265.954C323.959,266.01 324.055,266.043 324.188,266.089C324.277,266.154 324.751,266.51 324.868,266.598C324.943,266.707 325.715,267.838 325.715,267.838C325.666,267.746 326.498,270.038 326.498,270.038C326.724,271.021 326.923,272.242 327.045,273.428C327.187,274.764 327.259,276.411 327.259,278.327L327.331,308.464C327.331,310.64 327.144,312.572 326.772,314.208C326.341,315.791 325.856,316.967 325.301,317.77C324.595,318.789 324.097,319.367 323.583,319.766C323.095,320.146 321.937,320.778 321.532,320.991L321.88,322.405L345.455,322.405L345.712,320.95C345.139,320.742 344.099,320.313 343.743,320.046C343.179,319.67 342.663,319.108 342.036,318.201M-15.826,224.612L-15.831,224.609C-24.055,219.952 -33.3,217.591 -43.309,217.591C-53.366,217.591 -62.635,219.952 -70.859,224.609C-79.179,229.396 -85.841,235.764 -90.665,243.54C-95.619,251.408 -98.132,260.251 -98.132,269.817C-98.132,279.385 -95.619,288.229 -90.662,296.102C-85.815,303.914 -79.151,310.258 -70.859,314.954C-62.679,319.659 -53.408,322.046 -43.309,322.046C-33.258,322.046 -24.011,319.659 -15.826,314.952C-7.578,310.281 -0.891,303.938 4.045,296.102C8.954,288.188 11.441,279.346 11.441,269.817C11.441,260.29 8.954,251.449 4.047,243.54C-0.865,235.739 -7.55,229.372 -15.826,224.612M-3.299,285.416L-3.3,285.422C-5.279,293.194 -8.859,299.927 -13.94,305.43C-19.026,310.939 -25.352,314.625 -32.74,316.385C-35.508,316.951 -38.17,317.229 -40.857,317.229C-45.488,317.229 -50.052,316.35 -54.422,314.614C-61.439,311.851 -67.402,307.463 -72.654,301.202C-77.825,295.04 -81.484,287.552 -83.53,278.944C-84.485,274.538 -84.951,270.464 -84.951,266.503C-84.951,262.24 -84.426,258.083 -83.39,254.149C-81.411,246.372 -77.832,239.64 -72.75,234.134C-67.665,228.695 -61.336,225.008 -53.943,223.178C-51.182,222.613 -48.519,222.335 -45.832,222.335C-41.201,222.335 -36.637,223.215 -32.266,224.951C-25.278,227.703 -19.121,232.215 -13.963,238.362C-8.882,244.417 -5.248,251.907 -3.159,260.621C-2.204,265.036 -1.737,269.11 -1.737,273.062C-1.737,277.317 -2.263,281.474 -3.299,285.416M590.825,301.939C586.987,309.967 580.853,315.14 572.592,317.318C570.578,317.688 568.692,317.878 566.99,317.878C561.247,317.878 555.988,316.131 550.913,312.537C544.358,307.846 539.543,301.041 536.566,292.337C537.776,291.762 602.132,261.18 602.132,261.18L601.639,260.455C597.246,254.013 591.956,249.271 585.916,246.359C579.771,243.399 572.756,241.96 564.467,241.96C556.606,241.96 549.305,243.786 542.765,247.388C536.191,251.007 530.909,255.896 527.064,261.918C523.159,268.034 521.18,274.864 521.18,282.22C521.18,289.526 523.159,296.331 527.064,302.447C530.957,308.545 536.239,313.458 542.765,317.051C549.308,320.651 556.609,322.478 564.467,322.478C571.375,322.478 577.585,321.158 583.453,318.443C589.223,315.741 594.181,312.04 598.196,307.441L598.723,306.839L591.224,301.105L590.825,301.939M534.432,278.47C534.432,272.442 535.738,266.808 538.314,261.723C542.218,253.916 548.292,248.855 556.371,246.678C558.36,246.313 560.179,246.128 561.871,246.128C566.034,246.128 570.093,247.119 573.932,249.075C579.394,251.873 583.962,256.136 587.573,261.68C586.078,262.427 537.138,286.863 535.409,287.727C534.788,284.622 534.432,281.513 534.432,278.47M512.83,303.836L512.815,303.829C509.277,302.027 505.582,300.94 501.813,300.501C505.976,297.648 509.413,294.188 511.958,290.115C514.858,285.355 516.326,280.081 516.326,274.433C516.326,268.766 514.834,263.467 511.89,258.684C509.078,254.228 505.325,250.549 500.782,247.671C501.808,246.67 502.886,245.963 504.031,245.754C505.79,245.516 507.026,245.407 508.007,245.407C508.986,245.407 509.97,245.477 510.928,245.615C513.091,245.903 514.923,246.259 516.38,246.675L519.754,247.729L517.972,230.147L517.175,230.291C512.682,231.102 509.138,232.49 506.338,234.534C503.601,236.605 501.502,238.782 500.091,241.011C498.863,243.013 498.059,244.549 497.563,245.805C492.263,243.136 486.382,241.743 480.032,241.743C473.449,241.743 467.34,243.204 461.875,246.084C456.437,248.983 452.027,252.974 448.765,257.945C445.479,262.836 443.812,268.386 443.812,274.433C443.812,280.479 445.479,286.029 448.769,290.929C452.029,295.895 456.439,299.884 461.872,302.78C467.292,305.708 473.403,307.194 480.032,307.194C485.469,307.194 490.431,306.201 495.197,304.18C500.488,304.408 504.877,306.009 508.232,308.953C512.464,312.698 514.61,318.815 514.61,327.134C514.61,327.954 514.471,329.359 514.185,331.43C513.798,333.67 513.109,335.993 512.145,338.311C511.104,340.807 509.434,343.251 507.18,345.574C504.938,347.955 501.875,349.932 498.066,351.457C494.142,353.026 489.235,353.857 483.484,353.927C476.284,353.927 469.743,352.591 464.054,349.957C458.51,347.395 454.598,344.106 452.427,340.183C450.186,336.133 449.049,332.172 449.049,328.409C449.049,326.418 449.303,324.252 449.825,321.787L450.018,320.882L435.78,320.882L435.777,320.896C435.279,320.628 434.335,320.1 433.906,319.767C433.375,319.353 432.849,318.721 432.202,317.716L432.188,317.695C431.606,316.854 431.136,315.656 430.789,314.135C430.367,312.66 430.159,310.765 430.159,308.462L430.159,230.742C430.159,228.244 430.302,226.126 430.582,224.448C430.686,223.653 430.863,222.988 431.04,222.324C445.76,226.462 454.099,229.732 454.182,229.766L454.724,229.98L467.515,212.345L466.562,212.013C454.407,207.783 441.84,204.029 429.203,200.829L429.203,162.033L426.789,162.033L426.789,146.951L421.441,146.951L421.441,162.033L419.026,162.033L419.026,198.378C331.53,178.409 255.29,189.117 206.367,201.795L206.367,185.195L195.89,185.195L195.89,204.644C194.965,204.921 186.392,207.497 185.011,207.911C184.175,201.229 178.932,194.96 170.401,190.505C171.435,188.59 172.041,186.631 172.041,184.657C172.041,175.035 160.386,167.062 144.269,165.582C141.95,158.196 131.24,152.875 118.385,152.875C106.667,152.875 96.392,157.45 93.108,164.029C76.558,166.965 65.458,175.726 65.458,185.905C65.458,187.268 65.709,188.627 66.117,189.967C51.35,194.223 41.823,203.116 41.823,212.798C41.823,226.844 61.353,238.271 85.357,238.271C85.357,238.271 86.297,238.246 86.378,238.243C93.725,248.554 105.588,259.481 110.642,263.946L110.642,308.462C110.642,312.502 109.954,315.615 108.599,317.715C107.619,319.284 104.829,320.998 104.801,321.015L103.861,321.588L103.946,320.93C103.204,320.734 102.542,320.495 102.336,320.349C101.75,319.979 101.245,319.516 100.758,318.905C100.125,318.112 96.961,313.884 96.841,308.445L96.841,277.39C96.767,268.903 95.104,261.98 91.897,256.807C88.681,251.618 84.423,247.785 79.243,245.416C74.048,243.073 68.632,241.887 63.142,241.887C61.222,241.887 58.537,242.029 54.936,242.322C51.136,242.71 47.154,243.57 43.085,244.88C38.611,246.321 34.199,248.588 29.973,251.617L29.388,252.037L37.035,263.675L37.665,262.74C40.077,259.161 42.363,256.244 44.653,253.822C47.1,251.161 49.748,249.089 52.753,247.479C55.761,245.941 59.14,245.19 63.07,245.19C67.286,245.19 71.054,246.463 74.592,249.081C79.908,253.05 83.043,260.565 83.966,271.355C80.438,269.568 76.496,268.139 72.179,267.142C67.489,266.075 63.188,265.534 59.394,265.534C49.772,265.534 41.287,266.538 34.174,268.519C26.908,270.596 21.469,273.586 17.542,277.66C13.575,281.777 11.563,286.926 11.563,292.962C11.563,298.523 12.808,303.093 15.367,306.931C17.857,310.669 21.194,313.732 25.283,316.037C29.405,318.359 33.944,320.013 38.775,320.95C43.688,321.978 48.431,322.478 53.265,322.478C58.75,322.478 63.573,321.91 67.597,320.792C71.468,319.695 74.731,318.359 77.299,316.82C79.76,315.301 81.707,313.75 83.094,312.208C83.565,311.711 83.888,311.294 84.233,310.866C84.31,312.294 84.454,313.508 84.688,314.54C85.068,316.63 85.706,319.276 87.229,320.928C87.23,320.929 87.313,321.021 87.313,321.021C87.617,321.356 88.182,321.982 89.016,322.344L89.158,322.405L128.767,322.405L129.034,320.954C128.634,320.803 127.494,320.338 127.021,320.022C126.49,319.669 125.974,319.107 125.346,318.201C124.754,317.411 124.289,316.291 123.945,314.851C123.52,313.355 123.316,311.535 123.316,309.255L123.316,300.981C123.718,300.572 136.995,287.052 138.08,285.946C139.078,287.205 156.658,309.361 156.658,309.361C161.053,314.79 161.975,317.749 161.975,319.276C161.975,319.859 161.836,320.213 161.72,320.407C161.565,320.589 161.31,320.795 161.079,320.886L160.9,320.943L161.138,322.405L184.786,322.405L185.044,320.951L182.881,320.158C181.504,319.677 179.605,318.547 177.228,316.797C174.89,315.079 172.098,312.236 168.929,308.348C168.929,308.348 146.066,279.599 145.268,278.595C146.161,277.688 167.369,256.141 167.369,256.141C171.058,252.451 174.367,249.62 177.199,247.731C180.142,245.846 182.179,244.724 183.6,244.208L185.895,243.419L185.651,241.96L171.665,241.96C171.665,241.96 171.349,243.293 171.335,243.35C171.385,243.382 171.486,243.447 171.621,243.534C171.632,243.551 171.747,243.741 171.747,243.741C171.75,243.749 171.852,244.152 171.852,244.152L171.852,244.657L171.766,245.262L171.718,245.543C171.665,245.861 171.485,246.289 171.153,246.887C171.108,246.968 169.832,249.046 169.832,249.046C169.238,249.936 168.526,250.854 167.638,251.879C167.637,251.879 164.415,255.389 164.415,255.389C164.415,255.389 125.74,294.785 123.319,297.252C123.324,293.826 123.403,235.335 123.406,233.556C128.992,234.968 134.877,235.708 140.937,235.708C161.621,235.708 179.648,227.228 184.111,215.491C184.758,215.358 189.627,214.357 189.946,214.291C194.166,215.015 194.33,223.371 194.33,229.336C194.33,229.576 194.329,308.462 194.329,308.462C194.329,312.501 193.642,315.615 192.287,317.716C191.307,319.284 188.517,320.998 188.488,321.015L186.209,322.405L212.454,322.405L212.8,320.99C212.776,320.978 210.407,319.734 209.471,318.351C208.873,317.467 208.407,316.514 208.047,315.436C207.813,314.862 207.621,314.19 207.455,313.383C209.731,315.707 212.616,317.669 216.256,319.312C220.809,321.44 226.502,322.478 233.651,322.478C241.672,322.478 249.362,320.481 256.507,316.545C263.684,312.551 269.044,307.481 272.442,301.478C275.856,295.521 277.589,289.211 277.589,282.724C277.589,280.709 277.44,278.612 277.147,276.492C275.224,265.9 271.735,258.247 266.477,253.062C261.318,247.977 255.91,244.758 250.401,243.494C245.069,242.284 240.332,241.671 236.319,241.671C234.792,241.671 233.24,241.745 231.706,241.89C222.13,242.786 213.867,246.089 207.079,251.657C207.083,248.76 207.132,216.417 207.132,216.417C207.132,216.362 207.204,210.655 210.553,210.609C296.438,197.068 368.713,207.137 414.3,217.991C417.225,220.383 417.417,224.557 417.417,225.548C417.417,225.682 417.413,225.758 417.413,225.764C417.413,225.764 417.412,248.855 417.412,251.659C410.624,246.09 402.359,242.786 392.782,241.89C391.248,241.745 389.696,241.671 388.171,241.671C384.239,241.671 379.963,242.187 375.461,243.204C369.151,244.598 363.304,247.915 358.083,253.062C352.842,258.229 349.229,266.102 347.346,276.461C347.049,278.604 346.901,280.7 346.901,282.724C346.901,289.238 348.415,295.161 351.4,300.329C355.276,307.136 360.879,312.593 368.052,316.545C375.125,320.48 382.792,322.478 390.838,322.478C397.987,322.478 403.68,321.44 408.241,319.308C411.879,317.666 414.766,315.701 417.042,313.373C416.888,314.172 416.715,314.861 416.518,315.424C416.024,316.688 415.55,317.618 415.032,318.329C414.478,319.095 413.949,319.676 413.544,319.965C413.107,320.291 412.074,320.806 411.712,320.978L412.033,322.405L435.535,322.405C435.388,323.406 435.292,324.374 435.292,325.312C435.292,330.366 436.79,335.311 439.745,340.008C444.216,347.19 451.904,352.394 462.594,355.468C468.331,357.138 475.168,357.95 483.493,357.95L486.7,357.805C488.828,357.731 491.472,357.374 494.783,356.859C498.313,356.311 501.847,355.452 505.287,354.307C509.082,353.042 512.636,351.314 515.849,349.172C519.144,346.974 521.911,344.083 524.073,340.578C526.234,337.075 527.285,332.866 527.285,327.712C527.285,322.018 525.946,317.258 523.192,313.162C520.478,309.203 516.992,306.066 512.83,303.836M486.417,301.388C484.939,301.709 483.35,301.872 481.69,301.872C476.878,301.872 472.321,300.319 468.147,297.258C462.586,293.174 458.775,287.251 456.822,279.652C456.267,277.074 455.981,274.509 455.981,272.054C455.981,267.272 457.044,262.829 459.14,258.849C462.322,252.76 467.233,248.788 473.738,247.04C475.188,246.725 476.784,246.561 478.446,246.561C483.257,246.561 487.688,248.07 491.995,251.177C497.552,255.256 501.361,261.179 503.314,268.779C503.871,271.357 504.156,273.899 504.156,276.306C504.156,281.155 503.1,285.521 500.925,289.655C497.805,295.688 492.924,299.634 486.417,301.388M84.166,290.997C84.023,295.897 83.004,300.38 81.137,304.318C79.247,308.311 76.47,311.583 72.883,314.045C69.246,316.491 64.681,317.733 59.321,317.733C52.659,317.733 46.697,316.897 41.6,315.248C36.66,313.646 32.786,310.901 30.084,307.091C27.354,303.24 25.97,297.929 25.97,291.304C25.97,287.287 26.758,283.949 28.313,281.382C29.936,278.771 31.987,276.695 34.406,275.217C36.997,273.634 39.768,272.449 42.641,271.697C45.52,270.925 48.408,270.424 51.231,270.206C53.734,270.013 56.027,269.919 58.24,269.919C62.596,269.919 66.27,270.426 69.471,271.468C72.817,272.584 75.698,273.893 78.028,275.354C80.314,276.792 82.367,278.349 84.166,279.975L84.166,290.997M110.642,250.486C104.78,246.932 98.607,241.819 94.008,237.696C99.992,236.99 105.679,235.554 110.642,233.48L110.642,250.486M210.065,258.387C212.12,255.059 214.961,252.101 218.511,249.595C222.9,246.53 228.407,244.975 234.877,244.975C238.879,244.975 242.513,245.664 245.985,247.081C255.595,251.01 261.431,261.672 263.331,278.77C263.521,280.599 263.614,282.578 263.614,284.815C263.614,290.712 262.641,295.973 260.72,300.451C258.104,306.393 254.461,310.916 249.896,313.891C245.213,317.012 240.444,318.526 235.309,318.526C232.289,318.526 229.189,318.109 225.834,317.253C222.435,316.385 219.328,315.081 216.602,313.379C213.659,311.584 211.403,309.42 209.698,306.759C207.882,304.104 207.005,301.036 207.005,297.36L207.076,267.224C207.076,264.575 208.082,261.604 210.065,258.387M417.484,297.36C417.484,300.953 416.604,304.113 414.868,306.751C413.094,309.413 410.833,311.582 407.959,313.379C405.077,315.134 402.055,316.402 398.727,317.253C395.418,318.098 392.205,318.526 389.179,318.526C384.137,318.526 379.339,316.854 374.919,313.556C370.438,310.212 367.004,305.733 364.711,300.243C362.307,294.729 361.09,288.595 361.09,282.003L361.162,278.703C361.725,270.191 363.558,263.27 366.607,258.163C369.585,253.178 373.232,249.688 377.446,247.792C381.706,245.945 385.877,245.046 390.188,245.046C396.244,245.046 401.56,246.579 405.986,249.602C409.611,252.161 412.478,255.119 414.496,258.387C416.479,261.604 417.484,264.575 417.484,267.222L417.484,297.36M171.334,243.354L171.335,243.35C171.326,243.344 171.282,243.316 171.282,243.316C171.282,243.316 171.313,243.339 171.334,243.354M171.471,243.452C171.471,243.452 171.389,243.393 171.334,243.354C171.334,243.354 171.328,243.38 171.328,243.38L171.471,243.452Z" style="fill:rgb(0,90,132);fill-rule:nonzero;"/>
    </g>
</svg>
